{"title":"Rita Ora ft.Chris Brown - Body On Me (2015)","uid":12274749,"size":105695614,"categoryP":"video","categoryS":"music_videos","magnet":"?xt=urn:btih:bff43bd08af662b730fbf086f04fbbb036ce4fd2&amp;dn=Rita+Ora+ft.Chris+Brown+-+Body+On+Me+%282015%29&amp;tr=udp%3A%2F%2Ftracker.openbittorrent.com%3A80&amp;tr=udp%3A%2F%2Fopen.demonii.com%3A1337&amp;tr=udp%3A%2F%2Ftracker.coppersurfer.tk%3A6969&amp;tr=udp%3A%2F%2Fexodus.desync.com%3A6969","seeders":2,"leechers":0,"uploader":"MeRaDil","files":1,"time":1440338675,"description":"RITA ORA ft.CHRIS BROWN - BODY ON ME\n\n &lt;a href=&quot;\nhttp://ultraimg.com/images/RitaOra-2.png&quot; rel=&quot;nofollow&quot; target=&quot;_NEW&quot;&gt;\nhttp://ultraimg.com/images/RitaOra-2.png&lt;/a&gt;\n &lt;a href=&quot;\nhttp://ultraimg.com/images/RitaOra-3.png&quot; rel=&quot;nofollow&quot; target=&quot;_NEW&quot;&gt;\nhttp://ultraimg.com/images/RitaOra-3.png&lt;/a&gt;\n &lt;a href=&quot;\nhttp://ultraimg.com/images/RitaOra-4.png&quot; rel=&quot;nofollow&quot; target=&quot;_NEW&quot;&gt;\nhttp://ultraimg.com/images/RitaOra-4.png&lt;/a&gt;\n\n\nGeneral\nRita Ora ft. Chris Brown - Body On Me\nFormat                                   : MPEG-4\nFormat profile                           : Base Media\nCodec ID                                 : isom\nFile size                                : 101 MiB\nDuration                                 : 4mn 38s\nOverall bit rate                         : 3 038 Kbps\nMusicVid name                            : Body On Me\nPerformer                                : Rita Ora ft. Chris Brown\nGenre                                    : RnB\nContentType                              : Music Video\nRecorded date                            : 2015\nCover                                    : Yes\nRating                                   : Unrated\nMake                                     : MeRaDil\nArtist url                               : http://www.ritaora.com/\nRelease date                             : UK/USA . august 18 . 2015\n\nVideo\nID                                       : 1\nFormat                                   : AVC\nFormat/Info                              : Advanced Video Codec\nFormat profile                           : &lt;a class=&quot;__cf_email__&quot; href=&quot;/cdn-cgi/l/email-protection&quot; data-cfemail=&quot;125a7b757a525e263c22&quot;&gt;[email&amp;#160;protected]&lt;/a&gt;&lt;script data-cfhash='f9e31' type=&quot;text/javascript&quot;&gt;\n/* &lt;![CDATA[ */!function(){try{var t=&quot;currentScript&quot;in document?document.currentScript:function(){for(var t=document.getElementsByTagName(&quot;script&quot;),e=t.length;e--;)if(t[e].getAttribute(&quot;data-cfhash&quot;))return t[e]}();if(t&amp;&amp;t.previousSibling){var e,r,n,i,c=t.previousSibling,a=c.getAttribute(&quot;data-cfemail&quot;);if(a){for(e=&quot;&quot;,r=parseInt(a.substr(0,2),16),n=2;a.length-n;n+=2)i=parseInt(a.substr(n,2),16)^r,e+=String.fromCharCode(i);e=document.createTextNode(e),c.parentNode.replaceChild(e,c)}t.parentNode.removeChild(t);}}catch(u){}}()/* ]]&gt; */&lt;/script&gt;\nFormat settings, CABAC                   : Yes\nFormat settings, ReFrames                : 2 frames\nCodec ID                                 : avc1\nCodec ID/Info                            : Advanced Video Coding\nDuration                                 : 4mn 38s\nBit rate                                 : 2 771 Kbps\nWidth                                    : 1 920 pixels\nHeight                                   : 1 080 pixels\nDisplay aspect ratio                     : 16:9\nFrame rate mode                          : Variable\nFrame rate                               : 23.976 fps\nMinimum frame rate                       : 23.974 fps\nMaximum frame rate                       : 23.981 fps\nColor space                              : YUV\nChroma subsampling                       : 4:2:0\nBit depth                                : 8 bits\nScan type                                : Progressive\nBits/(Pixel*Frame)                       : 0.056\nStream size                              : 91.9 MiB (91%)\n\nAudio\nID                                       : 2\nFormat                                   : AAC\nFormat/Info                              : Advanced Audio Codec\nFormat profile                           : LC\nCodec ID                                 : 40\nDuration                                 : 4mn 38s\nBit rate mode                            : Constant\nBit rate                                 : 256 Kbps\nChannel(s)                               : 2 channels\nChannel positions                        : Front: L R\nSampling rate                            : 44.1 KHz\nCompression mode                         : Lossy\nStream size                              : 8.49 MiB (8%)\n &lt;a href=&quot;\nhttps://thepiratebay.se/user/MeRaDil&quot; rel=&quot;nofollow&quot; target=&quot;_NEW&quot;&gt;\nhttps://thepiratebay.se/user/MeRaDil&lt;/a&gt;\n\nRita Ora * Pop * Promo","torrent":{"xt":"urn:btih:bff43bd08af662b730fbf086f04fbbb036ce4fd2","amp;dn":"Rita+Ora+ft.Chris+Brown+-+Body+On+Me+%282015%29","amp;tr":["udp%3A%2F%2Ftracker.openbittorrent.com%3A80","udp%3A%2F%2Fopen.demonii.com%3A1337","udp%3A%2F%2Ftracker.coppersurfer.tk%3A6969","udp%3A%2F%2Fexodus.desync.com%3A6969"],"infoHash":"bff43bd08af662b730fbf086f04fbbb036ce4fd2","infoHashBuffer":{"type":"Buffer","data":[191,244,59,208,138,246,98,183,48,251,240,134,240,79,187,176,54,206,79,210]},"announce":[],"urlList":[]}}